<mxfile host="app.diagrams.net" modified="2024-11-14T04:33:01.973Z" agent="Mozilla/5.0 (Macintosh; Intel Mac OS X 10_15_7) AppleWebKit/537.36 (KHTML, like Gecko) Chrome/130.0.0.0 Safari/537.36" version="21.6.5" etag="SW6cYHVBxhtoseGS0HUb" type="github">
  <diagram name="페이지-1" id="H0zsaqDXR23OrtTkZSht">
    <mxGraphModel>
      <root>
        <mxCell id="0" />
        <mxCell id="1" parent="0" />
      </root>
    </mxGraphModel>
  </diagram>
</mxfile>
